<svg width="32" height="50" viewBox="0 0 32 50" fill="#00818A" xmlns="http://www.w3.org/2000/svg">
<path d="M16 50L15.177 48.7531C14.558 47.814 0 25.6486 0 16.7508C0 7.51481 7.178 0 16 0C24.822 0 32 7.51481 32 16.7508C32 25.6486 17.442 47.814 16.823 48.7531L16 50ZM16 2.09385C8.28 2.09385 2 8.66852 2 16.7508C2 23.8562 12.885 41.411 16 46.2887C19.115 41.411 30 23.8562 30 16.7508C30 8.66852 23.72 2.09385 16 2.09385Z" fill="black"/>
<path d="M7 14.6569C3.141 14.6569 0 11.3696 0 7.32846C0 3.28734 3.141 0 7 0C10.859 0 14 3.28734 14 7.32846C14 11.3696 10.859 14.6569 7 14.6569ZM7 2.09385C4.243 2.09385 2 4.44209 2 7.32846C2 10.2148 4.243 12.5631 7 12.5631C9.757 12.5631 12 10.2148 12 7.32846C12 4.44209 9.757 2.09385 7 2.09385Z" transform="translate(9 9.4223)" fill="black"/>
</svg>
